<svg xmlns="http://www.w3.org/2000/svg" viewBox="0 0 24 24" fill="none">
  <rect x="3" y="3" width="18" height="18" rx="5" ry="5" fill="currentColor" opacity="0.1"/>
  <path d="M12 6.5c1.9 0 3.5 1.6 3.5 3.5S13.9 13.5 12 13.5 8.5 11.9 8.5 10 10.1 6.5 12 6.5Zm0 6.5c2.5 0 4.5-2 4.5-4.5S14.5 4 12 4 7.5 6 7.5 8.5 9.5 13 12 13Zm-4.2 6.4c.4-.5 1-.9 1.7-1.1 1.1-.4 2.3-.6 3.5-.6 1.2 0 2.4.2 3.5.6.7.2 1.3.6 1.7 1.1.2.2.3.5.2.8-.1.3-.4.5-.7.5H8.5c-.3 0-.6-.2-.7-.5-.1-.3 0-.6.2-.8Z" fill="currentColor"/>
</svg>