<svg width="800" height="720" viewBox="0 0 800 720" fill="none" xmlns="http://www.w3.org/2000/svg">
  <defs>
    <linearGradient id="bgGrad" x1="0" y1="0" x2="1" y2="1">
      <stop offset="0%" stop-color="#eef2ff" />
      <stop offset="100%" stop-color="#dbeafe" />
    </linearGradient>
    <linearGradient id="shapeGrad" x1="0" y1="0" x2="1" y2="1">
      <stop offset="0%" stop-color="#2563eb" />
      <stop offset="100%" stop-color="#7c3aed" />
    </linearGradient>
  </defs>
  <rect width="800" height="720" rx="40" fill="url(#bgGrad)" />
  <circle cx="220" cy="180" r="120" fill="#c7d2fe" />
  <rect x="460" y="120" width="240" height="240" rx="36" fill="#ffffff" opacity="0.85" />
  <rect x="500" y="170" width="160" height="18" rx="9" fill="#2563eb" />
  <rect x="500" y="205" width="140" height="18" rx="9" fill="#7c3aed" />
  <rect x="500" y="240" width="180" height="18" rx="9" fill="#2563eb" />
  <path d="M200 260C248.33 260 288 220.33 288 172C288 123.67 248.33 84 200 84C151.67 84 112 123.67 112 172C112 220.33 151.67 260 200 260Z" fill="#2563eb" opacity="0.18" />
  <rect x="150" y="330" width="260" height="260" rx="40" fill="white" />
  <rect x="185" y="375" width="190" height="26" rx="13" fill="#2563eb" />
  <rect x="185" y="415" width="150" height="18" rx="9" fill="#7c3aed" />
  <rect x="185" y="450" width="220" height="18" rx="9" fill="#2563eb" />
  <path d="M520 430H640V510H520V430Z" fill="#ffffff" opacity="0.9" />
  <path d="M520 430H640L620 560H520V430Z" fill="#c7d2fe" />
  <circle cx="600" cy="380" r="48" fill="#7c3aed" opacity="0.95" />
  <path d="M560 460C560 443.745 573.745 430 590 430H610C626.255 430 640 443.745 640 460V470H560V460Z" fill="#2563eb" />
  <path d="M256 150C256 103.882 211.118 65 160 65C108.882 65 64 103.882 64 150C64 196.118 108.882 235 160 235C211.118 235 256 196.118 256 150Z" fill="#7c3aed" opacity="0.15" />
</svg>
